<?xml version="1.0" encoding="iso-8859-1"?>
<!-- Generator: Adobe Illustrator 17.1.0, SVG Export Plug-In . SVG Version: 6.00 Build 0)  -->
<!DOCTYPE svg PUBLIC "-//W3C//DTD SVG 1.1//EN" "http://www.w3.org/Graphics/SVG/1.1/DTD/svg11.dtd">
<svg version="1.1" id="Capa_1" xmlns="http://www.w3.org/2000/svg" xmlns:xlink="http://www.w3.org/1999/xlink" x="0px" y="0px"
	 viewBox="0 0 512.003 512.003" style="enable-background:new 0 0 512.003 512.003;" xml:space="preserve">
<path d="M486.224,88.699c-2.752-5.364-8.207-8.696-14.235-8.696H288.003V60.164c0-3.58,2.409-6.75,5.859-7.708l132.282-36.745
	c4.257-1.183,6.75-5.592,5.567-9.85s-5.594-6.752-9.849-5.566L289.58,37.04c-10.349,2.875-17.577,12.384-17.577,23.124v19.839
	h-72.367c-4.056-44.788-41.806-80-87.633-80c-48.523,0-88,39.477-88,88c0,35.006,20.733,66.677,52.821,80.685
	c1.02,0.445,2.11,0.668,3.201,0.668c1.047,0,2.094-0.205,3.08-0.617c2.013-0.84,3.596-2.465,4.382-4.499l10.941-28.314
	l173.575,226.789v93.29c0,22.056-17.944,40-40,40h-24c-4.418,0-8,3.582-8,8s3.582,8,8,8h144c4.418,0,8-3.582,8-8s-3.582-8-8-8h-24
	c-22.056,0-40-17.944-40-40v-93.29l196.837-257.182c0.049-0.064,0.098-0.13,0.146-0.196
	C488.502,100.438,488.977,94.064,486.224,88.699z M167.634,200.022L88.022,96.003h95.523c-2.539,22.519-15.669,42.873-35.546,54.372
	c-3.825,2.213-5.131,7.106-2.919,10.931s7.106,5.13,10.931,2.919c24.81-14.352,41.018-39.997,43.616-68.222h72.377v104h-104
	C167.878,200.003,167.757,200.016,167.634,200.022z M75.747,150.229c-21.955-12.797-35.744-36.402-35.744-62.226
	c0-39.701,32.299-72,72-72c36.996,0,67.551,28.052,71.545,64H88.017c-6.029,0-11.483,3.332-14.235,8.696
	c-2.752,5.364-2.278,11.738,1.238,16.636c0.048,0.066,0.096,0.132,0.146,0.196l11.863,15.5L75.747,150.229z M288.865,496.003
	h-17.723c3.404-3.332,6.39-7.088,8.862-11.19C282.475,488.915,285.46,492.671,288.865,496.003z M392.372,200.022
	c-0.123-0.006-0.245-0.019-0.369-0.019h-24c-4.418,0-8,3.582-8,8s3.582,8,8,8h12.138L280.003,346.84L179.865,216.003h92.138v96
	c0,4.418,3.582,8,8,8s8-3.582,8-8v-96h48c4.418,0,8-3.582,8-8s-3.582-8-8-8h-48v-104h183.981L392.372,200.022z"/>
<g>
</g>
<g>
</g>
<g>
</g>
<g>
</g>
<g>
</g>
<g>
</g>
<g>
</g>
<g>
</g>
<g>
</g>
<g>
</g>
<g>
</g>
<g>
</g>
<g>
</g>
<g>
</g>
<g>
</g>
</svg>
